<?xml version="1.0" encoding="UTF-8"?><svg xmlns="http://www.w3.org/2000/svg" xmlns:xlink="http://www.w3.org/1999/xlink" fill-opacity="1" color-rendering="auto" color-interpolation="auto" text-rendering="auto" stroke="black" stroke-linecap="square" width="380" stroke-miterlimit="10" shape-rendering="auto" stroke-opacity="1" fill="black" stroke-dasharray="none" font-weight="normal" stroke-width="1" height="372" font-family="'Dialog'" font-style="normal" stroke-linejoin="miter" font-size="12px" stroke-dashoffset="0" image-rendering="auto">
  <!--Generated by ySVG 2.5-->
  <defs id="genericDefs"/>
  <g>
    <defs id="defs1">
      <clipPath clipPathUnits="userSpaceOnUse" id="clipPath1">
        <path d="M0 0 L380 0 L380 372 L0 372 L0 0 Z"/>
      </clipPath>
      <clipPath clipPathUnits="userSpaceOnUse" id="clipPath2">
        <path d="M95 -96 L475 -96 L475 276 L95 276 L95 -96 Z"/>
      </clipPath>
    </defs>
    <g fill="white" text-rendering="geometricPrecision" shape-rendering="geometricPrecision" transform="translate(-95,96)" stroke="white">
      <rect x="95" width="380" height="372" y="-96" clip-path="url(#clipPath2)" stroke="none"/>
    </g>
    <g fill="rgb(255,204,0)" text-rendering="geometricPrecision" shape-rendering="geometricPrecision" transform="matrix(1,0,0,1,-95,96)" stroke="rgb(255,204,0)">
      <rect x="213.5" width="140" height="125" y="-80.5" clip-path="url(#clipPath2)" stroke="none"/>
    </g>
    <g text-rendering="geometricPrecision" stroke-miterlimit="1.45" shape-rendering="geometricPrecision" font-family="sans-serif" transform="matrix(1,0,0,1,-95,96)" stroke-linecap="butt">
      <text x="260.3262" xml:space="preserve" y="-55.8633" clip-path="url(#clipPath2)" stroke="none">Loading</text>
      <text x="281.6016" xml:space="preserve" y="-41.7305" clip-path="url(#clipPath2)" stroke="none"> </text>
      <text x="261.8613" xml:space="preserve" y="-27.5977" clip-path="url(#clipPath2)" stroke="none">Tidying</text>
      <text x="281.6016" xml:space="preserve" y="-13.4648" clip-path="url(#clipPath2)" stroke="none"> </text>
      <text x="242.4023" xml:space="preserve" y="0.668" clip-path="url(#clipPath2)" stroke="none">Normalization</text>
      <text x="281.6016" xml:space="preserve" y="14.8008" clip-path="url(#clipPath2)" stroke="none"> </text>
      <text x="238.5059" xml:space="preserve" y="28.9336" clip-path="url(#clipPath2)" stroke="none">Transformation</text>
      <rect fill="none" x="213.5" width="140" height="125" y="-80.5" clip-path="url(#clipPath2)"/>
    </g>
    <g fill="rgb(255,204,0)" text-rendering="geometricPrecision" shape-rendering="geometricPrecision" transform="matrix(1,0,0,1,-95,96)" stroke="rgb(255,204,0)">
      <rect x="110" width="140" height="98" y="101" clip-path="url(#clipPath2)" stroke="none"/>
    </g>
    <g text-rendering="geometricPrecision" stroke-miterlimit="1.45" shape-rendering="geometricPrecision" font-family="sans-serif" transform="matrix(1,0,0,1,-95,96)" stroke-linecap="butt">
      <text x="142.6377" xml:space="preserve" y="140.4023" clip-path="url(#clipPath2)" stroke="none">Visualization</text>
      <text x="178.1016" xml:space="preserve" y="154.5352" clip-path="url(#clipPath2)" stroke="none"> </text>
      <text x="146.7158" xml:space="preserve" y="168.668" clip-path="url(#clipPath2)" stroke="none">Exploration</text>
      <rect fill="none" x="110" width="140" height="98" y="101" clip-path="url(#clipPath2)"/>
    </g>
    <g fill="rgb(255,204,0)" text-rendering="geometricPrecision" shape-rendering="geometricPrecision" transform="matrix(1,0,0,1,-95,96)" stroke="rgb(255,204,0)">
      <rect x="320" width="140" height="98" y="101" clip-path="url(#clipPath2)" stroke="none"/>
    </g>
    <g text-rendering="geometricPrecision" stroke-miterlimit="1.45" shape-rendering="geometricPrecision" font-family="sans-serif" transform="matrix(1,0,0,1,-95,96)" stroke-linecap="butt">
      <text x="346.1982" xml:space="preserve" y="126.2695" clip-path="url(#clipPath2)" stroke="none">Summarization</text>
      <text x="388.1016" xml:space="preserve" y="140.4023" clip-path="url(#clipPath2)" stroke="none"> </text>
      <text x="361.3594" xml:space="preserve" y="154.5352" clip-path="url(#clipPath2)" stroke="none">Modelling</text>
      <text x="388.1016" xml:space="preserve" y="168.668" clip-path="url(#clipPath2)" stroke="none"> </text>
      <text x="340.0869" xml:space="preserve" y="182.8008" clip-path="url(#clipPath2)" stroke="none">Statistical testing</text>
      <rect fill="none" x="320" width="140" height="98" y="101" clip-path="url(#clipPath2)"/>
    </g>
    <g text-rendering="geometricPrecision" stroke-miterlimit="1.45" shape-rendering="geometricPrecision" transform="matrix(1,0,0,1,-95,96)" stroke-linecap="butt">
      <path fill="none" d="M244.9955 44.5 L231.8065 53.9927 L237.3455 54.0577 L237.3455 54.0577 L215.2833 89.8687 L212.7341 84.9508 L210.1875 101 L223.3766 91.5073 L217.8375 91.4423 L217.8375 91.4423 L239.8997 55.6313 L242.4489 60.5492 L244.9955 44.5 Z" clip-path="url(#clipPath2)"/>
    </g>
    <g text-rendering="geometricPrecision" stroke-miterlimit="1.45" shape-rendering="geometricPrecision" transform="matrix(1,0,0,1,-95,96)" stroke-linecap="butt">
      <path fill="none" d="M323.1205 44.5 L325.873 60.5152 L328.3589 55.5649 L351.1654 91.5413 L351.1654 91.5413 L345.6277 91.6774 L358.9375 101 L356.1851 84.9848 L353.6992 89.9351 L330.8927 53.9587 L330.8927 53.9587 L336.4304 53.8226 L323.1205 44.5 Z" clip-path="url(#clipPath2)"/>
    </g>
    <g text-rendering="geometricPrecision" stroke-miterlimit="1.45" shape-rendering="geometricPrecision" transform="matrix(1,0,0,1,-95,96)" stroke-linecap="butt">
      <path fill="none" d="M265 143.75 L250 150 L265 156.25 L262.15 151.5 L307.85 151.5 L305 156.25 L320 150 L305 143.75 L307.85 148.5 L262.15 148.5 L265 143.75 Z" clip-path="url(#clipPath2)"/>
    </g>
  </g>
</svg>
