<?xml version="1.0" encoding="UTF-8"?><svg xmlns="http://www.w3.org/2000/svg" xmlns:xlink="http://www.w3.org/1999/xlink" fill-opacity="1" color-rendering="auto" color-interpolation="auto" text-rendering="auto" stroke="black" stroke-linecap="square" width="380" stroke-miterlimit="10" shape-rendering="auto" stroke-opacity="1" fill="black" stroke-dasharray="none" font-weight="normal" stroke-width="1" height="345" font-family="'Dialog'" font-style="normal" stroke-linejoin="miter" font-size="12px" stroke-dashoffset="0" image-rendering="auto">
  <!--Generated by ySVG 2.5-->
  <defs id="genericDefs"/>
  <g>
    <defs id="defs1">
      <clipPath clipPathUnits="userSpaceOnUse" id="clipPath1">
        <path d="M0 0 L380 0 L380 345 L0 345 L0 0 Z"/>
      </clipPath>
      <clipPath clipPathUnits="userSpaceOnUse" id="clipPath2">
        <path d="M95 -69 L475 -69 L475 276 L95 276 L95 -69 Z"/>
      </clipPath>
    </defs>
    <g fill="white" text-rendering="geometricPrecision" shape-rendering="geometricPrecision" transform="translate(-95,69)" stroke="white">
      <rect x="95" width="380" height="345" y="-69" clip-path="url(#clipPath2)" stroke="none"/>
    </g>
    <g fill="rgb(255,204,0)" text-rendering="geometricPrecision" shape-rendering="geometricPrecision" transform="matrix(1,0,0,1,-95,69)" stroke="rgb(255,204,0)">
      <rect x="213.5" width="140" height="98" y="-53.5" clip-path="url(#clipPath2)" stroke="none"/>
    </g>
    <g text-rendering="geometricPrecision" stroke-miterlimit="1.45" shape-rendering="geometricPrecision" font-family="sans-serif" transform="matrix(1,0,0,1,-95,69)" stroke-linecap="butt">
      <text x="260.3262" xml:space="preserve" y="-28.2305" clip-path="url(#clipPath2)" stroke="none">Loading</text>
      <text x="281.6016" xml:space="preserve" y="-14.0977" clip-path="url(#clipPath2)" stroke="none"> </text>
      <text x="261.8613" xml:space="preserve" y="0.0352" clip-path="url(#clipPath2)" stroke="none">Tidying</text>
      <text x="281.6016" xml:space="preserve" y="14.168" clip-path="url(#clipPath2)" stroke="none"> </text>
      <text x="238.5059" xml:space="preserve" y="28.3008" clip-path="url(#clipPath2)" stroke="none">Transformation</text>
      <rect fill="none" x="213.5" width="140" height="98" y="-53.5" clip-path="url(#clipPath2)"/>
    </g>
    <g fill="rgb(255,204,0)" text-rendering="geometricPrecision" shape-rendering="geometricPrecision" transform="matrix(1,0,0,1,-95,69)" stroke="rgb(255,204,0)">
      <rect x="110" width="140" height="98" y="101" clip-path="url(#clipPath2)" stroke="none"/>
    </g>
    <g text-rendering="geometricPrecision" stroke-miterlimit="1.45" shape-rendering="geometricPrecision" font-family="sans-serif" transform="matrix(1,0,0,1,-95,69)" stroke-linecap="butt">
      <text x="142.6377" xml:space="preserve" y="140.4023" clip-path="url(#clipPath2)" stroke="none">Visualization</text>
      <text x="178.1016" xml:space="preserve" y="154.5352" clip-path="url(#clipPath2)" stroke="none"> </text>
      <text x="146.7158" xml:space="preserve" y="168.668" clip-path="url(#clipPath2)" stroke="none">Exploration</text>
      <rect fill="none" x="110" width="140" height="98" y="101" clip-path="url(#clipPath2)"/>
    </g>
    <g fill="rgb(255,204,0)" text-rendering="geometricPrecision" shape-rendering="geometricPrecision" transform="matrix(1,0,0,1,-95,69)" stroke="rgb(255,204,0)">
      <rect x="320" width="140" height="98" y="101" clip-path="url(#clipPath2)" stroke="none"/>
    </g>
    <g text-rendering="geometricPrecision" stroke-miterlimit="1.45" shape-rendering="geometricPrecision" font-family="sans-serif" transform="matrix(1,0,0,1,-95,69)" stroke-linecap="butt">
      <text x="346.1982" xml:space="preserve" y="126.2695" clip-path="url(#clipPath2)" stroke="none">Summarization</text>
      <text x="388.1016" xml:space="preserve" y="140.4023" clip-path="url(#clipPath2)" stroke="none"> </text>
      <text x="361.3594" xml:space="preserve" y="154.5352" clip-path="url(#clipPath2)" stroke="none">Modelling</text>
      <text x="388.1016" xml:space="preserve" y="168.668" clip-path="url(#clipPath2)" stroke="none"> </text>
      <text x="340.0869" xml:space="preserve" y="182.8008" clip-path="url(#clipPath2)" stroke="none">Statistical testing</text>
      <rect fill="none" x="320" width="140" height="98" y="101" clip-path="url(#clipPath2)"/>
    </g>
    <g text-rendering="geometricPrecision" stroke-miterlimit="1.45" shape-rendering="geometricPrecision" transform="matrix(1,0,0,1,-95,69)" stroke-linecap="butt">
      <path fill="none" d="M250.6748 44.5 L237.1338 53.4836 L242.6664 53.7595 L242.6664 53.7595 L218.3412 90.0708 L218.3412 90.0708 L215.9811 85.0594 L212.8252 101 L226.3662 92.0164 L220.8336 91.7405 L220.8336 91.7405 L245.1588 55.4291 L247.5189 60.4406 L250.6748 44.5 Z" clip-path="url(#clipPath2)"/>
    </g>
    <g text-rendering="geometricPrecision" stroke-miterlimit="1.45" shape-rendering="geometricPrecision" transform="matrix(1,0,0,1,-95,69)" stroke-linecap="butt">
      <path fill="none" d="M317.2767 44.5 L320.644 60.3973 L322.9373 55.3549 L348.0926 91.8477 L348.0926 91.8477 L342.5642 92.197 L356.2233 101 L352.856 85.1027 L350.5627 90.1451 L325.4074 53.6523 L325.4074 53.6523 L330.9358 53.303 L317.2767 44.5 Z" clip-path="url(#clipPath2)"/>
    </g>
    <g text-rendering="geometricPrecision" stroke-miterlimit="1.45" shape-rendering="geometricPrecision" transform="matrix(1,0,0,1,-95,69)" stroke-linecap="butt">
      <path fill="none" d="M265 143.75 L250 150 L265 156.25 L262.15 151.5 L307.85 151.5 L305 156.25 L320 150 L305 143.75 L307.85 148.5 L262.15 148.5 L265 143.75 Z" clip-path="url(#clipPath2)"/>
    </g>
  </g>
</svg>
